<svg width="774" height="608" viewBox="0 0 774 608" fill="none" xmlns="http://www.w3.org/2000/svg">
<path d="M709.778 231.215C577.015 107.415 535.059 402.881 541.165 68.7089C543.726 -69.8646 287.163 23.0102 134.998 154.591C-49.5692 314.142 -81.0856 476.846 272.981 586.759C588.735 684.853 913.649 421.298 709.778 231.215Z" fill="#F4F4F4"/>
<path d="M172.227 492.505C278.989 409.283 336.112 457.837 389.887 524.711C462.965 615.616 668.806 549.235 627.441 478.717C586.076 408.199 569.234 391.358 638.176 276.421C653.048 251.602 657.579 225.306 654.723 199.994C565.393 183.448 536.142 350.682 541.165 70.4818C517.725 66.2468 494.58 71.3682 475.769 89.3916C379.644 181.084 270.913 97.5661 142.188 195.661C13.3649 293.755 91.1709 555.735 172.227 492.505Z" fill="#293F7D"/>
<path d="M172.227 492.505C278.989 409.283 336.112 457.837 389.887 524.711C462.965 615.616 668.806 549.235 627.441 478.717C586.076 408.199 569.234 391.358 638.176 276.421C653.048 251.602 657.579 225.306 654.723 199.994C565.393 183.448 536.142 350.682 541.165 70.4818C517.725 66.2468 494.58 71.3682 475.769 89.3916C379.644 181.084 270.913 97.5661 142.188 195.661C13.3649 293.755 91.1709 555.735 172.227 492.505Z" fill="#5D9ACF"/>
<path d="M184.046 464.437C191.826 466.111 199.114 467.786 206.009 469.558C291.694 420.314 342.12 465.225 389.887 524.712C392.546 527.962 395.304 531.114 398.258 533.97C419.433 535.25 445.927 533.871 482.269 528.848C561.946 517.719 600.259 492.999 618.577 463.846C586.175 408.889 575.636 385.843 626.949 295.529C621.138 268.543 611.388 239.686 595.531 214.079C594.546 214.67 593.561 215.359 592.576 215.95C591.887 216.443 591.198 216.837 590.508 217.329C586.076 220.284 581.94 223.14 578.099 225.701C577.409 226.193 576.818 226.587 576.227 226.981C575.735 227.375 575.144 227.67 574.652 227.966C573.47 228.655 572.386 229.345 571.303 230.034C570.909 230.231 570.416 230.527 570.023 230.724C569.727 230.921 569.432 231.117 569.038 231.216C567.757 231.905 566.575 232.496 565.394 232.989C565.098 233.087 564.803 233.186 564.507 233.284C564.212 233.383 563.916 233.481 563.621 233.58C563.03 233.777 562.537 233.974 561.946 234.072C561.651 234.171 561.454 234.171 561.159 234.269C559.484 234.565 557.908 234.565 556.53 234.171C555.939 233.974 555.348 233.777 554.757 233.481C553.772 232.989 552.787 232.201 551.901 231.216C551.704 231.019 551.605 230.822 551.408 230.625C549.832 228.557 548.355 225.701 547.173 221.761C546.976 221.17 546.779 220.579 546.681 219.988C546.582 219.594 546.484 219.2 546.385 218.708C546.188 217.822 545.893 216.935 545.696 216.049C545.597 215.556 545.499 215.064 545.4 214.67C545.203 213.783 545.006 212.897 544.908 211.912C544.908 211.715 544.809 211.617 544.809 211.42C544.612 210.435 544.514 209.45 544.317 208.367C544.218 207.874 544.12 207.283 544.12 206.791C544.12 206.298 543.923 205.707 543.923 205.116C543.628 203.147 543.431 201.078 543.135 198.912C543.037 198.222 543.037 197.631 542.938 196.942C542.643 193.889 542.347 190.737 542.15 187.29C542.052 185.813 541.953 184.335 541.855 182.858C541.855 182.76 541.855 182.661 541.855 182.661C541.461 175.668 541.067 167.789 540.87 159.024C525.309 149.766 507.285 142.97 486.307 139.622C360.734 119.037 450.654 223.238 253.48 248.845C56.306 274.354 61.4274 437.845 184.046 464.437Z" fill="#23356A"/>
<path d="M184.046 464.437C191.826 466.111 199.114 467.786 206.009 469.558C291.694 420.314 342.12 465.225 389.887 524.712C392.546 527.962 395.304 531.114 398.258 533.97C419.433 535.25 445.927 533.871 482.269 528.848C561.946 517.719 614.377 526.171 632.696 497.019C629.181 447.106 575.636 385.843 626.949 295.529C621.138 268.543 611.388 239.686 595.531 214.079C594.546 214.67 593.561 215.359 592.576 215.95C591.887 216.443 591.198 216.837 590.508 217.329C586.076 220.284 581.94 223.14 578.099 225.701C577.409 226.193 576.818 226.587 576.227 226.981C575.735 227.375 575.144 227.67 574.651 227.966C573.47 228.655 572.386 229.345 571.303 230.034C570.909 230.231 570.416 230.527 570.023 230.724C569.727 230.921 569.432 231.117 569.038 231.216C567.757 231.905 566.575 232.496 565.394 232.989C565.098 233.087 564.803 233.186 564.507 233.284C564.212 233.383 563.916 233.481 563.621 233.58C563.03 233.777 562.537 233.974 561.946 234.072C561.651 234.171 561.454 234.171 561.159 234.269C559.484 234.565 557.908 234.565 556.53 234.171C555.939 233.974 555.348 233.777 554.757 233.481C553.772 232.989 552.787 232.201 551.901 231.216C551.704 231.019 551.605 230.822 551.408 230.625C549.832 228.557 548.355 225.701 547.173 221.761C546.976 221.17 546.779 220.579 546.681 219.988C546.582 219.594 546.484 219.2 546.385 218.708C546.188 217.822 545.893 216.935 545.696 216.049C545.597 215.556 545.499 215.064 545.4 214.67C545.203 213.783 545.006 212.897 544.908 211.912C544.908 211.715 544.809 211.617 544.809 211.42C544.612 210.435 544.514 209.45 544.317 208.367C544.218 207.874 544.12 207.283 544.12 206.791C544.12 206.298 543.923 205.707 543.923 205.116C543.628 203.147 543.431 201.078 543.135 198.912C543.037 198.222 543.037 197.631 542.938 196.942C542.643 193.889 542.347 190.737 542.15 187.29C542.052 185.813 541.953 184.335 541.855 182.858C541.855 182.76 541.855 182.661 541.855 182.661C541.461 175.668 541.067 167.789 540.87 159.024C525.309 149.766 507.285 142.97 486.307 139.622C360.734 119.037 450.654 223.238 253.48 248.845C56.306 274.354 61.4274 437.845 184.046 464.437Z" fill="#4E81A8"/>
<path d="M203.606 271.846C206.738 261.769 201.108 251.06 191.03 247.928C180.953 244.796 170.244 250.427 167.112 260.504C163.98 270.582 169.611 281.29 179.688 284.422C189.766 287.554 200.474 281.924 203.606 271.846Z" fill="#333333"/>
<path opacity="0.1" d="M204.334 264.406C200.69 265.588 197.145 267.164 193.796 269.232C192.614 269.921 191.531 270.709 190.546 271.596C185.425 275.732 179.811 279.179 174.591 282.035C177.25 283.808 180.402 284.99 183.553 285.286C187.394 282.922 191.334 280.263 195.076 277.21C197.539 275.141 200.395 273.664 203.349 272.384C204.236 269.823 204.63 267.065 204.334 264.406Z" fill="#5F5F5F"/>
<path opacity="0.1" d="M192.22 248.351C186.705 246.185 180.303 246.677 174.984 250.026C170.158 253.177 167.105 258.102 166.317 263.322C168.78 261.45 171.143 259.481 173.409 257.314C178.727 252.586 185.818 249.927 192.22 248.351Z" fill="#838383"/>
<path opacity="0.1" d="M200 253.867C198.228 251.701 195.962 250.026 193.5 248.844C192.121 249.534 190.743 250.322 189.364 251.208C187.492 252.39 185.72 253.769 184.045 255.246C178.431 260.466 172.03 264.8 166.317 268.148C166.613 271.004 167.598 273.762 169.174 276.421C170.06 277.899 171.242 279.179 172.424 280.262C176.856 277.702 181.386 274.747 185.621 271.3C190.94 266.966 197.932 264.701 204.235 263.618C203.94 261.254 203.152 258.89 201.872 256.724C197.341 257.61 192.515 258.989 188.083 261.254C188.379 261.057 188.576 260.762 188.871 260.565C192.121 257.61 195.962 255.443 200 253.867Z" fill="#848484"/>
<path d="M192.318 256.231C192.022 256.526 192.318 257.019 193.007 257.314C193.697 257.61 194.583 257.61 194.878 257.314C195.174 257.019 194.878 256.526 194.189 256.231C193.5 255.935 192.613 255.935 192.318 256.231Z" fill="#333333"/>
<path d="M192.22 256.33C191.925 256.625 192.319 257.019 193.008 257.314C193.697 257.61 194.485 257.61 194.879 257.314C194.485 257.61 193.697 257.61 192.909 257.314C192.22 257.117 191.925 256.625 192.22 256.33Z" fill="#333333"/>
<path d="M194.19 256.33C193.5 256.034 192.712 256.034 192.318 256.33C192.318 256.33 192.318 256.33 192.417 256.231C192.614 255.936 193.5 255.936 194.19 256.33C194.978 256.625 195.273 257.118 194.978 257.314C194.978 257.314 194.978 257.314 194.879 257.314C195.076 257.019 194.781 256.625 194.19 256.33Z" fill="#333333"/>
<path d="M230.236 330.59L276.23 221.76H303.807V330.59H315.724V353.637H303.906V382.789H279.087V353.538H230.335V330.59H230.236ZM278.988 330.59V270.118L253.48 330.59H278.988Z" fill="white"/>
<path d="M348.226 260.466C348.226 247.466 351.476 237.42 358.074 230.427C364.673 223.435 374.128 219.988 386.636 219.988C399.046 219.988 408.599 223.435 415.198 230.427C421.797 237.42 425.047 247.367 425.047 260.466V344.182C425.047 357.182 421.797 367.228 415.198 374.221C408.599 381.213 399.144 384.66 386.636 384.66C374.227 384.66 364.673 381.213 358.074 374.221C351.476 367.228 348.226 357.281 348.226 344.182V260.466ZM373.537 345.757C373.537 351.568 374.719 355.705 377.083 358.069C379.446 360.432 382.598 361.614 386.636 361.614C390.576 361.614 393.826 360.432 396.19 358.069C398.553 355.705 399.735 351.568 399.735 345.757V258.792C399.735 252.981 398.553 248.845 396.19 246.481C393.826 244.117 390.674 242.935 386.636 242.935C382.598 242.935 379.446 244.117 377.083 246.481C374.719 248.845 373.537 252.981 373.537 258.792V345.757Z" fill="white"/>
<path d="M458.434 330.59L504.428 221.76H532.005V330.59H543.922V353.637H532.005V382.789H507.186V353.538H458.434V330.59ZM507.186 330.59V270.118L481.677 330.59H507.186Z" fill="white"/>
<path d="M549.636 303.408C574.875 303.408 595.335 282.948 595.335 257.71C595.335 232.471 574.875 212.011 549.636 212.011C524.398 212.011 503.938 232.471 503.938 257.71C503.938 282.948 524.398 303.408 549.636 303.408Z" fill="url(#paint0_linear)"/>
<path opacity="0.22" d="M537.718 213.488C541.855 221.564 547.075 229.344 553.378 236.238C555.545 238.602 557.81 240.867 560.272 243.034C572.091 253.375 582.531 265.293 591.296 276.52C594.546 269.429 595.826 261.747 595.236 254.065C588.144 245.89 580.265 237.716 571.598 230.132C565.787 225.109 560.962 219.003 556.924 212.503C550.522 211.518 544.022 211.813 537.718 213.488Z" fill="url(#paint1_linear)"/>
<path opacity="0.22" d="M504.823 248.549C501.967 262.337 505.611 277.209 515.755 288.437C525.013 298.68 537.915 303.703 550.719 303.407C545.4 298.483 539.688 293.558 533.779 289.028C520.286 278.687 511.028 263.125 504.823 248.549Z" fill="url(#paint2_linear)"/>
<path opacity="0.22" d="M514.672 228.162C510.24 233.283 507.187 239.291 505.512 245.496C507.777 248.549 510.141 251.504 512.702 254.36C516.247 258.299 520.187 261.943 524.422 265.193C538.998 276.323 551.802 289.619 562.045 301.733C568.643 299.861 574.848 296.513 580.265 291.588C583.318 288.831 585.977 285.679 588.046 282.33C580.265 272.974 571.303 263.519 561.454 254.852C549.143 244.018 541.067 228.556 535.847 214.078C530.43 215.752 525.21 218.51 520.581 222.351C524.52 232.692 529.74 243.329 536.733 252.981C536.044 252.488 535.453 251.996 534.862 251.504C526.687 245.2 519.99 236.927 514.672 228.162Z" fill="url(#paint3_linear)"/>
<path d="M507.285 240.375C506.793 241.556 506.399 242.837 506.005 244.019C501.474 245.003 498.717 246.579 498.421 248.549C497.633 254.557 519.99 262.534 548.454 266.277C576.917 270.02 600.554 268.148 601.342 262.14C601.637 260.171 599.372 258.004 595.236 255.739C595.137 254.458 595.039 253.178 594.94 251.898C610.403 256.724 619.956 262.239 619.267 266.868C618.183 275.042 586.076 277.603 547.567 272.482C509.058 267.36 478.724 256.625 479.807 248.451C480.496 243.822 491.133 240.965 507.285 240.375Z" fill="url(#paint4_linear)"/>
<path d="M316.02 193.297C320.551 191.918 324.096 188.274 325.574 183.743C325.771 183.054 326.657 183.054 326.854 183.743C328.233 188.274 331.877 191.918 336.407 193.297C337.097 193.494 337.097 194.38 336.407 194.577C331.877 195.956 328.233 199.6 326.854 204.131C326.657 204.82 325.771 204.82 325.574 204.131C324.195 199.6 320.551 196.054 316.02 194.577C315.429 194.38 315.429 193.494 316.02 193.297Z" fill="white"/>
<path d="M453.313 103.081C457.844 101.703 461.39 98.0585 462.867 93.5281C463.064 92.8386 463.95 92.8386 464.147 93.5281C465.526 98.0585 469.17 101.703 473.701 103.081C474.39 103.278 474.39 104.165 473.701 104.362C469.17 105.741 465.526 109.385 464.147 113.915C463.95 114.605 463.064 114.605 462.867 113.915C461.488 109.385 457.844 105.839 453.313 104.362C452.624 104.066 452.624 103.278 453.313 103.081Z" fill="white"/>
<path d="M661.124 206.987C671.17 203.835 679.148 195.956 682.201 185.91C682.693 184.433 684.565 184.433 685.057 185.91C688.209 195.956 696.088 203.933 706.232 207.085C707.709 207.577 707.709 209.449 706.232 209.941C696.186 212.994 688.209 220.972 685.155 231.018C684.663 232.495 682.792 232.495 682.299 231.018C679.246 220.972 671.269 212.994 661.223 209.941C659.647 209.35 659.647 207.479 661.124 206.987Z" fill="white"/>
<path d="M8.24345 269.331C18.2893 266.179 26.2669 258.3 29.32 248.254C29.8124 246.777 31.6837 246.777 32.1762 248.254C35.3278 258.3 43.2069 266.278 53.3512 269.429C54.8286 269.922 54.8286 271.793 53.3512 272.285C43.3054 275.339 35.3278 283.316 32.2747 293.362C31.7822 294.839 29.9109 294.839 29.4185 293.362C26.3654 283.316 18.3878 275.339 8.34193 272.285C6.76611 271.695 6.76612 269.823 8.24345 269.331Z" fill="white"/>
<path d="M131.847 391.357C134.621 391.357 136.87 389.109 136.87 386.334C136.87 383.56 134.621 381.312 131.847 381.312C129.073 381.312 126.824 383.56 126.824 386.334C126.824 389.109 129.073 391.357 131.847 391.357Z" fill="#3D61BA"/>
<path d="M194.486 420.609C197.26 420.609 199.509 418.36 199.509 415.586C199.509 412.812 197.26 410.563 194.486 410.563C191.712 410.563 189.463 412.812 189.463 415.586C189.463 418.36 191.712 420.609 194.486 420.609Z" fill="#3D61BA"/>
<path d="M204.532 307.445C207.306 307.445 209.555 305.196 209.555 302.422C209.555 299.648 207.306 297.399 204.532 297.399C201.758 297.399 199.509 299.648 199.509 302.422C199.509 305.196 201.758 307.445 204.532 307.445Z" fill="#3D61BA"/>
<path d="M438.245 193.888C439.224 193.888 440.018 193.094 440.018 192.115C440.018 191.136 439.224 190.343 438.245 190.343C437.266 190.343 436.472 191.136 436.472 192.115C436.472 193.094 437.266 193.888 438.245 193.888Z" fill="#304C90"/>
<path d="M307.551 407.607C308.53 407.607 309.323 406.813 309.323 405.834C309.323 404.855 308.53 404.062 307.551 404.062C306.572 404.062 305.778 404.855 305.778 405.834C305.778 406.813 306.572 407.607 307.551 407.607Z" fill="#304C90"/>
<path d="M189.463 352.947C190.442 352.947 191.236 352.153 191.236 351.174C191.236 350.195 190.442 349.401 189.463 349.401C188.484 349.401 187.69 350.195 187.69 351.174C187.69 352.153 188.484 352.947 189.463 352.947Z" fill="#304C90"/>
<path d="M97.1148 308.275C100.069 307.388 102.433 305.025 103.32 302.07C103.418 301.676 104.009 301.676 104.107 302.07C104.994 305.025 107.358 307.388 110.312 308.275C110.706 308.373 110.706 308.964 110.312 309.063C107.358 309.949 104.994 312.313 104.107 315.268C104.009 315.662 103.418 315.662 103.32 315.268C102.433 312.313 100.069 309.949 97.1148 309.063C96.7208 308.964 96.7208 308.373 97.1148 308.275Z" fill="white"/>
<path d="M509.255 410.859C512.029 410.859 514.278 408.61 514.278 405.836C514.278 403.062 512.029 400.813 509.255 400.813C506.481 400.813 504.232 403.062 504.232 405.836C504.232 408.61 506.481 410.859 509.255 410.859Z" fill="#3D61BA"/>
<path d="M438.245 447.988C441.019 447.988 443.268 445.739 443.268 442.965C443.268 440.191 441.019 437.942 438.245 437.942C435.471 437.942 433.222 440.191 433.222 442.965C433.222 445.739 435.471 447.988 438.245 447.988Z" fill="#3D61BA"/>
<path d="M493.99 192.115C496.764 192.115 499.013 189.866 499.013 187.092C499.013 184.318 496.764 182.069 493.99 182.069C491.216 182.069 488.967 184.318 488.967 187.092C488.967 189.866 491.216 192.115 493.99 192.115Z" fill="#3D61BA"/>
<path d="M588.637 340.536C589.616 340.536 590.41 339.743 590.41 338.764C590.41 337.784 589.616 336.991 588.637 336.991C587.658 336.991 586.864 337.784 586.864 338.764C586.864 339.743 587.658 340.536 588.637 340.536Z" fill="#304C90"/>
<path d="M565.591 409.48C566.57 409.48 567.363 408.686 567.363 407.707C567.363 406.728 566.57 405.934 565.591 405.934C564.612 405.934 563.818 406.728 563.818 407.707C563.818 408.686 564.612 409.48 565.591 409.48Z" fill="#304C90"/>
<path d="M597.599 460.102C598.579 460.102 599.372 459.309 599.372 458.33C599.372 457.351 598.579 456.557 597.599 456.557C596.62 456.557 595.827 457.351 595.827 458.33C595.827 459.309 596.62 460.102 597.599 460.102Z" fill="#304C90"/>
<path d="M369.795 415.093C372.75 414.207 375.114 411.843 376 408.888C376.099 408.494 376.69 408.494 376.788 408.888C377.675 411.843 380.038 414.207 382.993 415.093C383.387 415.191 383.387 415.782 382.993 415.881C380.038 416.767 377.675 419.131 376.788 422.086C376.69 422.48 376.099 422.48 376 422.086C375.114 419.131 372.75 416.767 369.795 415.881C369.402 415.881 369.402 415.29 369.795 415.093Z" fill="white"/>
<path d="M553.772 378.455C556.727 377.569 559.09 375.205 559.977 372.251C560.075 371.857 560.666 371.857 560.765 372.251C561.651 375.205 564.015 377.569 566.969 378.455C567.363 378.554 567.363 379.145 566.969 379.243C564.015 380.13 561.651 382.493 560.765 385.448C560.666 385.842 560.075 385.842 559.977 385.448C559.09 382.493 556.727 380.13 553.772 379.243C553.378 379.243 553.378 378.652 553.772 378.455Z" fill="white"/>
<path d="M521.468 449.466C524.423 448.58 526.786 446.216 527.673 443.261C527.771 442.867 528.362 442.867 528.461 443.261C529.347 446.216 531.711 448.58 534.665 449.466C535.059 449.565 535.059 450.155 534.665 450.254C531.711 451.14 529.347 453.504 528.461 456.459C528.362 456.853 527.771 456.853 527.673 456.459C526.786 453.504 524.423 451.14 521.468 450.254C520.976 450.254 520.976 449.663 521.468 449.466Z" fill="white"/>
<path d="M255.548 178.425C259.03 178.425 261.852 175.603 261.852 172.122C261.852 168.641 259.03 165.819 255.548 165.819C252.067 165.819 249.245 168.641 249.245 172.122C249.245 175.603 252.067 178.425 255.548 178.425Z" fill="#4D79E3"/>
<path d="M509.255 128.787C512.736 128.787 515.558 125.965 515.558 122.484C515.558 119.003 512.736 116.181 509.255 116.181C505.774 116.181 502.952 119.003 502.952 122.484C502.952 125.965 505.774 128.787 509.255 128.787Z" fill="#4D79E3"/>
<path d="M345.666 88.6031C349.147 88.6031 351.969 85.781 351.969 82.2998C351.969 78.8186 349.147 75.9966 345.666 75.9966C342.184 75.9966 339.362 78.8186 339.362 82.2998C339.362 85.781 342.184 88.6031 345.666 88.6031Z" fill="white"/>
<path d="M707.315 331.575C710.797 331.575 713.619 328.753 713.619 325.272C713.619 321.791 710.797 318.969 707.315 318.969C703.834 318.969 701.012 321.791 701.012 325.272C701.012 328.753 703.834 331.575 707.315 331.575Z" fill="white"/>
<path d="M257.617 491.914C261.098 491.914 263.92 489.092 263.92 485.611C263.92 482.13 261.098 479.308 257.617 479.308C254.136 479.308 251.313 482.13 251.313 485.611C251.313 489.092 254.136 491.914 257.617 491.914Z" fill="white"/>
<path d="M633.252 387.516C636.733 387.516 639.555 384.694 639.555 381.213C639.555 377.732 636.733 374.91 633.252 374.91C629.771 374.91 626.949 377.732 626.949 381.213C626.949 384.694 629.771 387.516 633.252 387.516Z" fill="white"/>
<path d="M386.637 197.237C390.499 197.237 393.629 194.106 393.629 190.244C393.629 186.382 390.499 183.251 386.637 183.251C382.775 183.251 379.644 186.382 379.644 190.244C379.644 194.106 382.775 197.237 386.637 197.237Z" fill="#444444"/>
<path d="M395.206 187.092H395.403C395.6 187.092 395.698 187.191 395.698 187.388V188.077H395.206V187.092Z" fill="#BCBCBC"/>
<path d="M377.576 188.176H378.955V191.919H377.576C377.281 191.919 376.985 191.623 376.985 191.328V188.767C376.985 188.373 377.281 188.176 377.576 188.176Z" fill="#DFDFDF"/>
<path d="M396.289 188.767V191.327C396.289 191.623 395.993 191.918 395.698 191.918H394.319V188.176H395.698C396.092 188.176 396.289 188.373 396.289 188.767Z" fill="#DFDFDF"/>
<path d="M394.931 188.199L395.719 188.199L395.719 188.1L394.931 188.1L394.931 188.199Z" fill="#747474"/>
<path d="M395.155 187.137L395.45 187.137L395.45 181.228L395.155 181.228L395.155 187.137Z" fill="#616161"/>
<path d="M392.054 204.032C393.577 204.032 394.811 202.798 394.811 201.275C394.811 199.752 393.577 198.517 392.054 198.517C390.531 198.517 389.296 199.752 389.296 201.275C389.296 202.798 390.531 204.032 392.054 204.032Z" fill="white"/>
<path d="M391.97 207.063L394.728 207.063L394.728 201.252L391.97 201.252L391.97 207.063Z" fill="white"/>
<path d="M394.713 207.086V212.503C394.713 213.291 394.122 213.882 393.334 213.882C392.546 213.882 391.955 213.291 391.955 212.503V207.086H394.713Z" fill="white"/>
<path d="M381.319 204.032C382.842 204.032 384.076 202.798 384.076 201.275C384.076 199.752 382.842 198.517 381.319 198.517C379.796 198.517 378.561 199.752 378.561 201.275C378.561 202.798 379.796 204.032 381.319 204.032Z" fill="white"/>
<path d="M381.319 201.276H378.561V207.086H381.319V201.276Z" fill="white"/>
<path d="M377.773 189.358C377.773 194.282 381.712 198.222 386.637 198.222C391.561 198.222 395.501 194.282 395.501 189.358C395.501 184.433 391.561 180.494 386.637 180.494C381.712 180.494 377.773 184.532 377.773 189.358ZM380.137 190.736C380.137 187.092 383.091 184.236 386.637 184.236C390.281 184.236 393.137 187.191 393.137 190.736C393.137 194.381 390.183 197.237 386.637 197.237C383.091 197.237 380.137 194.381 380.137 190.736Z" fill="white"/>
<path d="M382.5 198.321H390.773V196.449L386.637 197.828L382.5 196.449V198.321Z" fill="white"/>
<path d="M382.5 197.828H390.872C390.97 197.828 391.069 197.927 391.069 198.025V198.222C391.069 198.321 390.97 198.419 390.872 198.419H382.5C382.402 198.419 382.303 198.321 382.303 198.222V198.025C382.205 197.927 382.303 197.828 382.5 197.828Z" fill="url(#paint5_linear)"/>
<path d="M389.493 185.517C391.167 186.305 391.561 187.881 391.167 188.176C390.675 188.472 389.788 187.782 388.705 187.29C387.622 186.699 386.44 186.502 386.341 186.009C386.243 185.32 387.819 184.631 389.493 185.517Z" fill="white"/>
<path d="M392.349 189.161C392.546 189.752 392.25 190.342 391.955 190.342C391.561 190.342 391.265 190.047 391.167 189.555C391.068 189.161 391.068 188.668 391.364 188.471C391.659 188.373 392.152 188.57 392.349 189.161Z" fill="white"/>
<path d="M383.879 202.259H389.493C389.69 202.259 389.887 202.456 389.887 202.652V206.691C389.887 206.888 389.69 207.084 389.493 207.084H383.879C383.682 207.084 383.485 206.888 383.485 206.691V202.652C383.485 202.357 383.682 202.259 383.879 202.259Z" fill="#EDEDED"/>
<path d="M392.054 198.517V211.321V222.548H388.114V212.601C388.114 212.306 387.819 212.109 387.622 212.109C387.326 212.109 387.031 212.207 386.735 212.207C386.44 212.207 386.144 212.207 385.849 212.109C385.554 212.109 385.357 212.306 385.357 212.601V222.548H381.417V211.419V198.616H392.054V198.517Z" fill="white"/>
<path d="M393.433 208.464C394.194 208.464 394.811 207.846 394.811 207.085C394.811 206.323 394.194 205.706 393.433 205.706C392.671 205.706 392.054 206.323 392.054 207.085C392.054 207.846 392.671 208.464 393.433 208.464Z" fill="white"/>
<path d="M381.319 207.086V212.503C381.319 213.291 380.728 213.882 379.94 213.882C379.152 213.882 378.561 213.291 378.561 212.503V207.086H381.319Z" fill="white"/>
<path d="M379.94 208.464C380.701 208.464 381.319 207.846 381.319 207.085C381.319 206.323 380.701 205.706 379.94 205.706C379.178 205.706 378.561 206.323 378.561 207.085C378.561 207.846 379.178 208.464 379.94 208.464Z" fill="white"/>
<path d="M389.001 214.768H392.152C392.349 214.768 392.546 214.965 392.546 215.162V217.033C392.546 217.23 392.349 217.427 392.152 217.427H389.001C388.804 217.427 388.607 217.23 388.607 217.033V215.162C388.607 214.965 388.804 214.768 389.001 214.768Z" fill="#DFDFDF"/>
<path d="M384.371 214.768H381.22C381.023 214.768 380.826 214.965 380.826 215.162V217.033C380.826 217.23 381.023 217.427 381.22 217.427H384.371C384.568 217.427 384.765 217.23 384.765 217.033V215.162C384.765 214.965 384.568 214.768 384.371 214.768Z" fill="#DFDFDF"/>
<path d="M384.765 203.835H388.508V203.146H384.765V203.835Z" fill="url(#paint6_linear)"/>
<path d="M384.765 204.918H388.508V204.327H384.765V204.918Z" fill="url(#paint7_linear)"/>
<path d="M384.765 206.1H388.508V205.509H384.765V206.1Z" fill="url(#paint8_linear)"/>
<path d="M384.962 221.367C384.568 220.48 383.682 220.185 382.599 220.185C381.121 220.185 379.939 220.776 379.939 222.549H384.076H385.159V221.367H384.962Z" fill="#DFDFDF"/>
<path d="M388.311 221.367C388.705 220.48 389.591 220.185 390.674 220.185C392.152 220.185 393.334 220.776 393.334 222.549H389.197H388.114V221.367H388.311Z" fill="#DFDFDF"/>
<path opacity="0.26" d="M382.894 223.237L385.16 224.124H385.061C384.864 224.124 384.864 224.124 384.963 224.222L386.44 224.715C386.637 224.813 386.932 224.813 387.129 224.813H387.228L389.788 225.798L393.039 227.078L388.902 225.503C388.311 225.306 387.228 225.109 386.538 225.109C385.75 225.109 385.652 225.306 386.243 225.503L390.379 227.078L394.811 228.753C395.993 229.147 398.062 229.541 399.637 229.541H400.819C400.721 229.541 400.622 229.541 400.721 229.639L400.918 229.738C401.016 229.738 401.213 229.836 401.312 229.836L401.804 230.033C400.524 230.328 400.425 230.919 401.509 231.51H400.918C400.622 231.51 400.524 231.609 400.819 231.707L402.789 232.495C402.986 232.594 403.478 232.692 403.774 232.692H404.069C407.812 233.874 413.82 234.76 418.252 234.859C417.267 233.48 416.183 232.101 415.1 230.919C413.524 230.624 411.751 230.328 410.077 230.132L409.585 229.935H409.683C409.782 229.935 409.88 229.935 409.782 229.836L409.585 229.738C409.486 229.738 409.289 229.639 409.191 229.639H410.373C411.85 229.639 412.145 229.245 411.062 228.851L406.63 227.177L402.493 225.601C401.903 225.404 400.819 225.207 400.13 225.207C399.44 225.207 399.243 225.306 399.637 225.503L398.061 224.912H398.16C398.357 224.912 398.357 224.912 398.258 224.813L396.781 224.321C396.584 224.222 396.289 224.222 396.092 224.222H395.993L393.728 223.336C394.319 223.237 394.319 223.04 393.334 222.745H388.114L395.698 225.601C395.895 225.7 395.796 225.798 395.501 225.798C395.205 225.798 394.811 225.798 394.516 225.798C394.22 225.798 393.925 225.798 393.728 225.798C393.433 225.798 393.039 225.7 392.842 225.601L386.144 223.139L385.258 222.745H380.038C380.924 222.942 381.909 223.139 382.894 223.237Z" fill="url(#paint9_linear)"/>
<path d="M169.646 346.359C169.646 346.359 160.585 336.608 143.251 340.351C125.917 344.192 122.47 357.291 122.47 357.291L169.646 346.359Z" fill="#FCD8BE"/>
<path d="M203.23 353.352C203.23 353.352 200.374 336.806 144.827 349.708C93.0215 361.723 95.5822 378.269 95.5822 378.269L203.23 353.352Z" fill="#3E7235"/>
<path d="M173.093 369.307C173.093 369.307 210.715 357.98 202.048 350.889C193.381 343.798 153.198 351.973 136.652 356.405C120.106 360.837 90.3622 372.557 96.567 378.958C105.431 388.216 173.093 369.307 173.093 369.307Z" fill="#4DA142"/>
<path d="M170.729 370.193C170.729 370.193 173.29 368.026 169.941 366.648C166.494 365.269 156.842 365.958 148.865 368.026C140.887 370.095 130.053 374.822 132.023 377.875C133.993 380.83 164.032 377.087 170.729 370.193Z" fill="#44728E"/>
<path d="M168.07 371.473C168.07 371.473 161.373 369.897 150.441 372.556C139.607 375.215 135.175 378.662 135.175 378.662C135.175 378.662 138.129 384.769 152.312 381.223C166.593 377.579 168.07 371.473 168.07 371.473Z" fill="url(#paint10_linear)"/>
<path opacity="0.32" d="M173.192 369.208C173.192 369.208 210.716 357.882 202.147 350.889C193.579 343.897 153.395 352.071 136.948 356.405C120.402 360.837 90.7567 372.458 96.9614 378.762C105.825 388.02 173.192 369.208 173.192 369.208Z" fill="url(#paint11_linear)"/>
<path d="M148.196 380.523C153.613 419.524 159.03 458.624 164.545 497.626C165.727 496.936 167.401 495.951 169.371 494.671C172.227 492.8 174.197 491.125 174.689 490.731C178.333 487.777 193.599 476.549 207.387 468.67C213.888 464.927 223.244 460.2 235.358 455.866C209.554 430.259 183.849 404.554 158.045 378.947L148.196 380.523Z" fill="url(#paint12_linear)"/>
<path d="M175.379 468.671C180.111 468.671 183.947 464.835 183.947 460.102C183.947 455.37 180.111 451.534 175.379 451.534C170.646 451.534 166.81 455.37 166.81 460.102C166.81 464.835 170.646 468.671 175.379 468.671Z" fill="#E5BD13"/>
<path d="M183.947 459.61C183.947 464.042 180.106 467.686 175.379 467.686C170.651 467.686 166.81 464.042 166.81 459.61C166.81 458.231 167.204 457.049 167.795 455.867C169.174 453.307 172.128 451.534 175.379 451.534C178.924 451.534 181.977 453.602 183.258 456.458C183.652 457.443 183.947 458.527 183.947 459.61Z" fill="#F4D34A"/>
<path d="M182.47 459.61C182.47 459.709 182.47 459.807 182.47 459.906C182.273 463.451 179.121 466.308 175.379 466.308C171.538 466.308 168.485 463.451 168.288 459.906C168.288 459.807 168.288 459.709 168.288 459.61C168.288 455.868 171.439 452.913 175.379 452.913C179.318 452.913 182.47 455.868 182.47 459.61Z" fill="#F4D34A"/>
<path opacity="0.5" fill-rule="evenodd" clip-rule="evenodd" d="M183.258 456.458C181.978 458.527 179.023 459.905 175.674 459.905C172.03 459.905 168.879 458.231 167.795 455.867C169.174 453.307 172.129 451.534 175.379 451.534C178.925 451.534 181.978 453.602 183.258 456.458Z" fill="#EDC314"/>
<path d="M182.47 460.004C182.273 463.55 179.121 466.406 175.379 466.406C171.538 466.406 168.485 463.55 168.288 460.004C168.288 459.413 168.386 458.921 168.583 458.33C169.469 455.572 172.227 453.602 175.379 453.602C178.727 453.602 181.584 455.868 182.273 458.822C182.371 459.216 182.47 459.61 182.47 460.004Z" fill="#FCE275"/>
<path d="M177.545 457.936C177.939 457.936 178.235 458.133 178.53 458.428C179.121 458.921 179.417 459.512 179.318 460.201C179.22 460.792 178.924 461.482 178.432 462.072L176.757 464.042L170.848 458.921L172.325 457.148C172.916 456.557 173.409 456.163 174 455.966C174.591 455.868 175.083 455.966 175.576 456.36C175.871 456.656 176.068 456.951 176.167 457.247C176.265 457.542 176.265 457.936 176.265 458.231C176.757 458.034 177.25 457.936 177.545 457.936ZM174.394 459.709L174.985 459.019C175.182 458.822 175.28 458.625 175.182 458.33C175.182 458.133 175.083 457.936 174.886 457.739C174.689 457.542 174.492 457.542 174.295 457.542C174.098 457.542 173.901 457.739 173.704 457.936L173.113 458.527L174.394 459.709ZM177.841 460.3C177.841 460.004 177.742 459.807 177.545 459.61C177.151 459.216 176.659 459.413 176.068 460.103L175.477 460.792L176.757 461.875L177.447 461.088C177.644 460.891 177.841 460.595 177.841 460.3Z" fill="#F4C708"/>
<path d="M171.344 456.622L170.759 457.289L171.87 458.263L172.454 457.597L171.344 456.622Z" fill="#F4C708"/>
<path d="M172.283 455.503L171.699 456.169L172.809 457.144L173.394 456.477L172.283 455.503Z" fill="#F4C708"/>
<path d="M177.759 462.201L177.175 462.868L178.285 463.842L178.87 463.176L177.759 462.201Z" fill="#F4C708"/>
<path d="M178.633 461.156L178.048 461.822L179.159 462.796L179.743 462.13L178.633 461.156Z" fill="#F4C708"/>
<path opacity="0.2" fill-rule="evenodd" clip-rule="evenodd" d="M182.273 458.822C180.796 460.201 178.334 461.186 175.675 461.186C172.72 461.186 170.061 460.103 168.583 458.33C169.47 455.572 172.228 453.602 175.379 453.602C178.728 453.602 181.584 455.769 182.273 458.822Z" fill="#F2D65C"/>
<path d="M178.17 415.154C178.895 412.702 177.495 410.127 175.044 409.402C172.592 408.677 170.017 410.076 169.292 412.528C168.567 414.98 169.967 417.555 172.418 418.28C174.87 419.005 177.445 417.605 178.17 415.154Z" fill="#E5BD13"/>
<path d="M172.621 418.343C170.356 417.653 169.075 415.093 169.765 412.729C170.454 410.267 172.916 408.888 175.28 409.577C175.97 409.774 176.56 410.168 177.053 410.661C178.136 411.744 178.629 413.517 178.136 415.29C177.644 417.161 176.068 418.343 174.394 418.638C173.803 418.54 173.212 418.54 172.621 418.343Z" fill="#F4D34A"/>
<path opacity="0.5" fill-rule="evenodd" clip-rule="evenodd" d="M174.393 418.442C173.507 417.457 173.212 415.783 173.803 414.01C174.393 412.139 175.674 410.76 177.053 410.563C178.136 411.646 178.628 413.419 178.136 415.192C177.644 416.965 176.068 418.245 174.393 418.442Z" fill="#EDC314"/>
<path d="M172.72 417.556C170.947 416.866 169.962 414.897 170.455 412.927C171.046 410.957 173.015 409.775 174.887 410.268C175.182 410.366 175.478 410.465 175.675 410.662C176.955 411.548 177.546 413.222 177.053 414.897C176.561 416.669 174.985 417.753 173.311 417.654C173.114 417.654 172.917 417.556 172.72 417.556Z" fill="#FCE275"/>
<path d="M174.491 415.291C174.393 415.488 174.294 415.685 174.097 415.783C173.703 415.98 173.408 416.079 173.112 415.882C172.817 415.783 172.521 415.488 172.325 415.192L171.537 414.011L175.082 411.745L175.772 412.829C175.969 413.223 176.166 413.518 176.067 413.912C176.067 414.208 175.87 414.503 175.575 414.7C175.378 414.799 175.181 414.897 175.082 414.897C174.885 414.897 174.688 414.897 174.59 414.799C174.59 414.897 174.59 415.094 174.491 415.291ZM173.999 413.42L174.294 413.814C174.393 413.912 174.491 414.011 174.59 414.011C174.688 414.011 174.787 414.011 174.984 413.912C175.082 413.814 175.181 413.715 175.181 413.617C175.181 413.518 175.181 413.321 175.082 413.223L174.885 412.829L173.999 413.42ZM173.211 415.094C173.309 415.192 173.506 415.094 173.605 415.094C173.9 414.897 173.9 414.7 173.605 414.208L173.309 413.814L172.522 414.306L172.817 414.799C173.014 414.897 173.112 414.995 173.211 415.094Z" fill="#F4C708"/>
<path d="M176.166 412.392L175.903 411.976L175.237 412.396L175.5 412.813L176.166 412.392Z" fill="#F4C708"/>
<path d="M176.603 412.997L176.34 412.581L175.674 413.001L175.937 413.418L176.603 412.997Z" fill="#F4C708"/>
<path d="M172.278 414.84L172.015 414.424L171.349 414.844L171.612 415.261L172.278 414.84Z" fill="#F4C708"/>
<path d="M172.715 415.445L172.452 415.029L171.785 415.45L172.048 415.866L172.715 415.445Z" fill="#F4C708"/>
<path opacity="0.2" fill-rule="evenodd" clip-rule="evenodd" d="M173.31 417.655C172.818 416.67 172.719 415.291 173.113 413.912C173.606 412.336 174.591 411.155 175.674 410.662C176.954 411.549 177.545 413.223 177.053 414.897C176.56 416.571 174.984 417.655 173.31 417.655Z" fill="#F2D65C"/>
<path fill-rule="evenodd" clip-rule="evenodd" d="M632.024 490.811C593.019 479.742 551.875 473.819 509.333 473.819C459.047 473.881 410.713 482.141 365.557 497.389C373.562 505.952 381.362 515.231 389.092 524.89C458.118 611.161 645.295 556.794 632.024 490.811Z" fill="#4DA142"/>
<path d="M475.269 540.881C491.901 540.881 505.383 535.196 505.383 528.183C505.383 521.17 491.901 515.485 475.269 515.485C458.637 515.485 445.154 521.17 445.154 528.183C445.154 535.196 458.637 540.881 475.269 540.881Z" fill="#44893A"/>
<path d="M625.164 501.836C625.686 498.148 611.665 493.095 593.848 490.551C576.031 488.007 561.165 488.935 560.643 492.624C560.122 496.313 574.142 501.365 591.959 503.909C609.776 506.453 624.642 505.525 625.164 501.836Z" fill="#44893A"/>
<path d="M417.911 498.685C429.136 497.053 437.964 493.84 437.628 491.508C437.292 489.176 427.92 488.609 416.695 490.241C405.469 491.873 396.641 495.086 396.977 497.418C397.313 499.749 406.685 500.317 417.911 498.685Z" fill="#44893A"/>
<path d="M560.478 493.263C560.478 493.164 560.478 493.065 560.576 492.966C560.774 496.636 574.498 501.497 591.876 503.977C609.253 506.457 623.767 505.664 625.051 502.192C625.051 502.291 625.051 502.39 625.051 502.489C624.458 506.557 609.549 507.747 591.777 505.168C573.906 502.588 559.984 497.331 560.478 493.263Z" fill="#599950"/>
<path d="M417.903 498.72C428.863 497.133 437.552 494.057 437.552 491.677C437.552 491.776 437.552 491.776 437.552 491.875C437.947 494.355 429.159 497.728 417.903 499.414C406.647 501.002 397.267 500.307 396.971 497.827C396.971 497.728 396.971 497.728 396.971 497.629C397.761 499.811 406.944 500.307 417.903 498.72Z" fill="#599950"/>
<path d="M475.269 540.882C491.56 540.882 504.791 535.425 505.383 528.58C505.383 528.779 505.383 528.878 505.383 529.076C505.383 536.616 491.955 542.667 475.269 542.667C458.681 542.667 445.154 536.616 445.154 529.076C445.154 528.878 445.154 528.779 445.154 528.58C445.747 535.525 458.977 540.882 475.269 540.882Z" fill="#599950"/>
<path d="M593.851 490.883C576.967 488.502 562.749 489.594 560.675 493.363C560.577 493.066 560.577 492.867 560.577 492.669C561.07 488.998 575.98 488.006 593.752 490.586C611.524 493.165 625.545 498.224 625.051 501.895C625.051 502.093 624.953 502.292 624.854 502.49C623.768 498.224 610.438 493.264 593.851 490.883Z" fill="#3E7235"/>
<path d="M475.269 516.379C458.977 516.379 445.747 521.835 445.154 528.68C445.154 528.581 445.154 528.382 445.154 528.283C445.154 521.24 458.582 515.585 475.269 515.585C491.856 515.585 505.383 521.24 505.383 528.283C505.383 528.382 505.383 528.581 505.383 528.68C504.791 521.835 491.56 516.379 475.269 516.379Z" fill="#3E7235"/>
<path d="M416.718 490.882C406.252 492.37 397.761 495.347 397.07 497.628C397.07 497.529 397.07 497.529 397.07 497.43C396.774 495.049 405.561 491.874 416.718 490.287C427.974 488.7 437.255 489.196 437.65 491.577C437.65 491.676 437.65 491.874 437.65 492.073C436.762 489.791 427.579 489.295 416.718 490.882Z" fill="#3E7235"/>
<path d="M473.788 534.235C473.196 534.532 472.406 534.731 471.616 534.631C470.431 534.532 469.542 534.036 468.851 533.243C468.259 532.449 467.963 531.259 468.16 529.671L468.555 523.62L482.378 524.612L481.983 530.267C481.884 531.655 481.489 532.747 480.798 533.441C480.107 534.135 479.218 534.433 478.034 534.433C477.342 534.433 476.75 534.235 476.256 533.937C475.763 533.639 475.368 533.243 475.072 532.747C474.874 533.342 474.38 533.838 473.788 534.235ZM479.811 527.191L476.553 526.993L476.355 529.671C476.355 530.366 476.454 530.862 476.651 531.259C476.948 531.655 477.342 531.854 477.836 531.854C478.33 531.854 478.824 531.755 479.12 531.457C479.416 531.159 479.613 530.663 479.613 529.969L479.811 527.191ZM470.826 531.259C471.122 531.655 471.517 531.854 472.109 531.854C473.294 531.953 473.887 531.259 473.985 529.87L474.183 526.695L470.727 526.398L470.53 529.572C470.53 530.366 470.628 530.862 470.826 531.259Z" fill="#4DA142"/>
<path d="M481.094 527.489L481.193 526.299C481.193 526.199 481.292 526.1 481.39 526.1L482.871 526.199C482.97 526.199 483.069 526.298 483.069 526.398L482.97 527.588C482.97 527.687 482.871 527.787 482.773 527.787L481.292 527.687C481.193 527.687 481.094 527.588 481.094 527.489Z" fill="#4DA142"/>
<path d="M480.896 530.267L480.995 529.076C480.995 528.977 481.094 528.878 481.193 528.878L482.575 528.977C482.674 528.977 482.772 529.076 482.772 529.175L482.674 530.366C482.674 530.465 482.575 530.564 482.476 530.564L481.094 530.465C480.995 530.465 480.896 530.366 480.896 530.267Z" fill="#4DA142"/>
<path d="M467.666 526.398L467.764 525.207C467.764 525.108 467.863 525.009 467.962 525.009L469.443 525.108C469.541 525.108 469.64 525.207 469.64 525.306L469.541 526.497C469.541 526.596 469.443 526.695 469.344 526.695L467.863 526.596C467.764 526.596 467.666 526.596 467.666 526.398Z" fill="#4DA142"/>
<path d="M467.469 529.176L467.567 527.985C467.567 527.886 467.666 527.787 467.765 527.787L469.147 527.886C469.246 527.886 469.345 527.985 469.345 528.084L469.246 529.275C469.246 529.374 469.147 529.473 469.049 529.473L467.666 529.374C467.567 529.374 467.469 529.275 467.469 529.176Z" fill="#4DA142"/>
<path d="M593.653 493.958C594.245 493.859 595.035 493.859 595.825 494.057C597.01 494.355 597.799 494.851 598.392 495.644C598.886 496.339 598.984 497.331 598.688 498.422L597.602 502.886L584.075 499.612L585.063 495.446C585.359 494.355 585.852 493.66 586.642 493.263C587.432 492.866 588.321 492.767 589.407 493.065C590.098 493.263 590.592 493.462 591.085 493.759C591.579 494.057 591.875 494.454 592.073 494.851C592.468 494.355 592.961 494.057 593.653 493.958ZM586.939 498.124L590.098 498.918L590.592 496.934C590.691 496.438 590.691 496.041 590.493 495.743C590.296 495.446 589.901 495.247 589.407 495.049C588.913 494.95 588.42 494.95 588.123 495.148C587.827 495.347 587.531 495.644 587.432 496.14L586.939 498.124ZM596.22 496.636C596.022 496.339 595.627 496.041 595.035 495.942C593.949 495.644 593.258 496.041 592.961 497.132L592.369 499.414L595.726 500.208L596.318 497.926C596.417 497.43 596.417 496.934 596.22 496.636Z" fill="#4DA142"/>
<path d="M585.755 497.628L585.557 498.422C585.557 498.521 585.458 498.521 585.36 498.521L583.879 498.124C583.78 498.124 583.78 498.025 583.78 497.926L583.977 497.132C583.977 497.033 584.076 497.033 584.175 497.033L585.656 497.43C585.656 497.43 585.755 497.529 585.755 497.628Z" fill="#4DA142"/>
<path d="M586.249 495.644L586.051 496.437C586.051 496.537 585.952 496.537 585.854 496.537L584.471 496.14C584.373 496.14 584.373 496.041 584.373 495.941L584.57 495.148C584.57 495.049 584.669 495.049 584.767 495.049L586.15 495.445C586.15 495.445 586.249 495.545 586.249 495.644Z" fill="#4DA142"/>
<path d="M598.788 500.901L598.591 501.695C598.591 501.794 598.492 501.794 598.393 501.794L596.912 501.397C596.813 501.397 596.813 501.298 596.813 501.199L597.011 500.405C597.011 500.306 597.11 500.306 597.208 500.306L598.689 500.703C598.689 500.703 598.788 500.802 598.788 500.901Z" fill="#4DA142"/>
<path d="M599.282 498.918L599.084 499.712C599.084 499.811 598.986 499.811 598.887 499.811L597.505 499.414C597.406 499.414 597.406 499.315 597.406 499.216L597.603 498.422C597.603 498.323 597.702 498.323 597.801 498.323L599.183 498.72C599.183 498.72 599.282 498.819 599.282 498.918Z" fill="#4DA142"/>
<path d="M416.027 492.767L417.113 496.537L416.422 496.736L415.731 494.355C415.533 494.255 415.336 494.156 415.04 494.255C414.743 494.355 414.546 494.454 414.447 494.652C414.348 494.851 414.349 495.049 414.349 495.347C414.447 495.545 414.546 495.843 414.743 496.041C414.941 496.24 415.138 496.438 415.336 496.537L414.447 497.033C414.151 496.835 413.954 496.736 413.756 496.438C413.559 496.24 413.46 495.942 413.361 495.743C413.262 495.446 413.262 495.049 413.361 494.851C413.46 494.553 413.657 494.355 413.954 494.057C414.25 493.859 414.546 493.66 414.941 493.561C415.138 493.561 415.237 493.462 415.435 493.462L415.336 493.065L416.027 492.767ZM418.397 496.14L417.706 496.339L416.619 492.569L417.311 492.371L418.002 494.851C418.199 494.95 418.397 494.95 418.594 494.95C418.89 494.851 419.088 494.752 419.187 494.553C419.285 494.355 419.384 494.156 419.285 493.859C419.187 493.462 418.89 493.164 418.495 492.867L419.483 492.371C419.68 492.47 419.878 492.668 420.075 492.867C420.273 493.065 420.371 493.263 420.371 493.462C420.47 493.759 420.47 494.057 420.371 494.355C420.273 494.652 420.075 494.851 419.779 495.148C419.483 495.347 419.187 495.545 418.792 495.644C418.594 495.644 418.495 495.743 418.298 495.743L418.397 496.14Z" fill="#4DA142"/>
<defs>
<linearGradient id="paint0_linear" x1="583.882" y1="230.095" x2="512.29" y2="287.68" gradientUnits="userSpaceOnUse">
<stop stop-color="#286D8E"/>
<stop offset="1" stop-color="#1558FF"/>
</linearGradient>
<linearGradient id="paint1_linear" x1="574.898" y1="234.931" x2="517.538" y2="290.51" gradientUnits="userSpaceOnUse">
<stop stop-color="#272425" stop-opacity="0.2"/>
<stop offset="1" stop-opacity="0.7"/>
</linearGradient>
<linearGradient id="paint2_linear" x1="572.556" y1="232.524" x2="515.19" y2="288.109" gradientUnits="userSpaceOnUse">
<stop stop-color="#272425" stop-opacity="0.2"/>
<stop offset="1" stop-opacity="0.7"/>
</linearGradient>
<linearGradient id="paint3_linear" x1="574.059" y1="234.066" x2="516.687" y2="289.657" gradientUnits="userSpaceOnUse">
<stop stop-color="#272425" stop-opacity="0.2"/>
<stop offset="1" stop-opacity="0.7"/>
</linearGradient>
<linearGradient id="paint4_linear" x1="618.249" y1="272.121" x2="480.724" y2="244.268" gradientUnits="userSpaceOnUse">
<stop stop-color="#0094AE"/>
<stop offset="1" stop-color="#668BCC"/>
</linearGradient>
<linearGradient id="paint5_linear" x1="391.078" y1="198.213" x2="382.25" y2="198.213" gradientUnits="userSpaceOnUse">
<stop stop-color="#DE5981"/>
<stop offset="1" stop-color="#D94360"/>
</linearGradient>
<linearGradient id="paint6_linear" x1="388.553" y1="203.501" x2="384.774" y2="203.501" gradientUnits="userSpaceOnUse">
<stop stop-color="#DE5981"/>
<stop offset="1" stop-color="#D94360"/>
</linearGradient>
<linearGradient id="paint7_linear" x1="388.553" y1="204.638" x2="384.774" y2="204.638" gradientUnits="userSpaceOnUse">
<stop stop-color="#DE5981"/>
<stop offset="1" stop-color="#D94360"/>
</linearGradient>
<linearGradient id="paint8_linear" x1="388.553" y1="205.776" x2="384.774" y2="205.776" gradientUnits="userSpaceOnUse">
<stop stop-color="#DE5981"/>
<stop offset="1" stop-color="#D94360"/>
</linearGradient>
<linearGradient id="paint9_linear" x1="415.453" y1="234.547" x2="382.583" y2="219.848" gradientUnits="userSpaceOnUse">
<stop stop-color="white"/>
<stop offset="0.0961617" stop-color="#F8F7F8"/>
<stop offset="0.2413" stop-color="#E3E3E3"/>
<stop offset="0.4175" stop-color="#C2C1C1"/>
<stop offset="0.6179" stop-color="#939292"/>
<stop offset="0.8359" stop-color="#585657"/>
<stop offset="1" stop-color="#272425"/>
</linearGradient>
<linearGradient id="paint10_linear" x1="168.414" y1="372.964" x2="135.665" y2="380.557" gradientUnits="userSpaceOnUse">
<stop offset="0.0224953" stop-color="#FBE0D9"/>
<stop offset="0.9976" stop-color="#FBE0D9"/>
</linearGradient>
<linearGradient id="paint11_linear" x1="154.329" y1="389.913" x2="147.61" y2="353.4" gradientUnits="userSpaceOnUse">
<stop offset="0.00237516" stop-color="#FFE0D9"/>
<stop offset="1" stop-color="#FBE0D9" stop-opacity="0"/>
</linearGradient>
<linearGradient id="paint12_linear" x1="148.15" y1="438.251" x2="235.324" y2="438.251" gradientUnits="userSpaceOnUse">
<stop stop-color="white" stop-opacity="0.4"/>
<stop offset="1" stop-color="white" stop-opacity="0"/>
</linearGradient>
</defs>
</svg>
